# Blender 5.0.1
# www.blender.org
mtllib shaft.mtl
o Part_2
v 0.000919 0.001099 0.000000
v 0.000892 0.001099 -0.000220
v 0.000813 0.001099 -0.000427
v 0.000688 0.001099 -0.000609
v 0.000522 0.001099 -0.000756
v 0.000326 0.001099 -0.000859
v 0.000111 0.001099 -0.000912
v -0.000111 0.001099 -0.000912
v -0.000326 0.001099 -0.000859
v -0.000522 0.001099 -0.000756
v -0.000688 0.001099 -0.000609
v -0.000813 0.001099 -0.000427
v -0.000892 0.001099 -0.000220
v -0.000919 0.001099 -0.000000
v -0.000892 0.001099 0.000220
v -0.000813 0.001099 0.000427
v -0.000688 0.001099 0.000609
v -0.000522 0.001099 0.000756
v -0.000326 0.001099 0.000859
v -0.000111 0.001099 0.000912
v 0.000111 0.001099 0.000912
v 0.000326 0.001099 0.000859
v 0.000522 0.001099 0.000756
v 0.000688 0.001099 0.000609
v 0.000813 0.001099 0.000427
v 0.000892 0.001099 0.000220
v 0.001946 0.001099 -0.001740
v -0.001946 0.001099 -0.001740
v 0.001476 0.001099 -0.002153
v 0.000921 0.001099 -0.002443
v 0.000313 0.001099 -0.002592
v -0.000313 0.001099 -0.002592
v -0.000921 0.001099 -0.002443
v -0.001476 0.001099 -0.002153
v -0.001946 0.001099 0.001740
v 0.001946 0.001099 0.001740
v -0.001476 0.001099 0.002153
v -0.000921 0.001099 0.002443
v -0.000313 0.001099 0.002592
v 0.000313 0.001099 0.002592
v 0.000921 0.001099 0.002443
v 0.001476 0.001099 0.002153
v 0.001946 0.001099 -0.001740
v 0.001476 0.001099 -0.002153
v 0.000921 0.001099 -0.002443
v 0.000313 0.001099 -0.002592
v -0.000313 0.001099 -0.002592
v -0.000921 0.001099 -0.002443
v -0.001476 0.001099 -0.002153
v -0.001946 0.001099 -0.001740
v 0.001946 0.008994 -0.001740
v 0.002611 0.008994 -0.000000
v 0.002534 0.008994 -0.000629
v 0.002308 0.008994 -0.001220
v 0.002611 -0.027781 -0.000000
v 0.002534 -0.027781 -0.000629
v 0.002308 -0.027781 -0.001220
v 0.001946 -0.027781 -0.001740
v 0.001946 -0.019886 -0.001740
v 0.001476 -0.019886 -0.002153
v 0.000921 -0.019886 -0.002443
v 0.000313 -0.019886 -0.002592
v -0.000313 -0.019886 -0.002592
v -0.000921 -0.019886 -0.002443
v -0.001476 -0.019886 -0.002153
v -0.001946 -0.019886 -0.001740
v -0.001946 -0.027781 -0.001740
v -0.002308 -0.027781 -0.001220
v -0.002534 -0.027781 -0.000629
v -0.002611 -0.027781 -0.000000
v -0.002534 -0.027781 0.000629
v -0.002308 -0.027781 0.001220
v -0.001946 -0.027781 0.001740
v -0.001946 -0.019886 0.001740
v -0.001476 -0.019886 0.002153
v -0.000921 -0.019886 0.002443
v -0.000313 -0.019886 0.002592
v 0.000313 -0.019886 0.002592
v 0.000921 -0.019886 0.002443
v 0.001476 -0.019886 0.002153
v 0.001946 -0.019886 0.001740
v 0.001946 -0.027781 0.001740
v 0.002308 -0.027781 0.001220
v 0.002534 -0.027781 0.000629
v 0.002611 -0.027781 -0.000000
v 0.002611 0.008994 -0.000000
v 0.001946 0.008994 0.001740
v 0.002308 0.008994 0.001220
v 0.002534 0.008994 0.000629
v 0.001946 0.001099 0.001740
v -0.001946 0.001099 0.001740
v -0.001476 0.001099 0.002153
v -0.000921 0.001099 0.002443
v -0.000313 0.001099 0.002592
v 0.000313 0.001099 0.002592
v 0.000921 0.001099 0.002443
v 0.001476 0.001099 0.002153
v -0.001946 0.008994 0.001740
v -0.001946 0.008994 -0.001740
v -0.002308 0.008994 -0.001220
v -0.002534 0.008994 -0.000629
v -0.002611 0.008994 -0.000000
v -0.002534 0.008994 0.000629
v -0.002308 0.008994 0.001220
v 0.001946 0.008994 -0.001740
v 0.001946 0.001099 -0.001740
v -0.001946 0.008994 -0.001740
v -0.001946 0.001099 -0.001740
v 0.000919 0.001099 0.000000
v 0.000919 0.008994 0.000000
v 0.000919 0.008994 0.000000
v 0.000892 0.008994 -0.000220
v 0.000813 0.008994 -0.000427
v 0.000688 0.008994 -0.000609
v 0.000522 0.008994 -0.000756
v 0.000326 0.008994 -0.000859
v 0.000111 0.008994 -0.000912
v -0.000111 0.008994 -0.000912
v -0.000326 0.008994 -0.000859
v -0.000522 0.008994 -0.000756
v -0.000688 0.008994 -0.000609
v -0.000813 0.008994 -0.000427
v -0.000892 0.008994 -0.000220
v -0.000919 0.008994 -0.000000
v -0.000892 0.008994 0.000220
v -0.000813 0.008994 0.000427
v -0.000688 0.008994 0.000609
v -0.000522 0.008994 0.000756
v -0.000326 0.008994 0.000859
v -0.000111 0.008994 0.000912
v 0.000111 0.008994 0.000912
v 0.000326 0.008994 0.000859
v 0.000522 0.008994 0.000756
v 0.000688 0.008994 0.000609
v 0.000813 0.008994 0.000427
v 0.000892 0.008994 0.000220
v 0.000919 0.001099 0.000000
v 0.000892 0.001099 -0.000220
v 0.000813 0.001099 -0.000427
v 0.000688 0.001099 -0.000609
v 0.000522 0.001099 -0.000756
v 0.000326 0.001099 -0.000859
v 0.000111 0.001099 -0.000912
v -0.000111 0.001099 -0.000912
v -0.000326 0.001099 -0.000859
v -0.000522 0.001099 -0.000756
v -0.000688 0.001099 -0.000609
v -0.000813 0.001099 -0.000427
v -0.000892 0.001099 -0.000220
v -0.000919 0.001099 -0.000000
v -0.000892 0.001099 0.000220
v -0.000813 0.001099 0.000427
v -0.000688 0.001099 0.000609
v -0.000522 0.001099 0.000756
v -0.000326 0.001099 0.000859
v -0.000111 0.001099 0.000912
v 0.000111 0.001099 0.000912
v 0.000326 0.001099 0.000859
v 0.000522 0.001099 0.000756
v 0.000688 0.001099 0.000609
v 0.000813 0.001099 0.000427
v 0.000892 0.001099 0.000220
v -0.001946 0.008994 0.001740
v -0.001946 0.001099 0.001740
v 0.001946 0.008994 0.001740
v 0.001946 0.001099 0.001740
v 0.001946 0.008994 0.001740
v 0.002308 0.008994 0.001220
v 0.002534 0.008994 0.000629
v 0.002611 0.008994 -0.000000
v 0.002534 0.008994 -0.000629
v 0.002308 0.008994 -0.001220
v 0.001946 0.008994 -0.001740
v -0.001946 0.008994 -0.001740
v -0.002308 0.008994 -0.001220
v -0.002534 0.008994 -0.000629
v -0.002611 0.008994 -0.000000
v -0.002534 0.008994 0.000629
v -0.002308 0.008994 0.001220
v -0.001946 0.008994 0.001740
v 0.000919 0.008994 0.000000
v 0.000892 0.008994 -0.000220
v 0.000813 0.008994 -0.000427
v 0.000688 0.008994 -0.000609
v 0.000522 0.008994 -0.000756
v 0.000326 0.008994 -0.000859
v 0.000111 0.008994 -0.000912
v -0.000111 0.008994 -0.000912
v -0.000326 0.008994 -0.000859
v -0.000522 0.008994 -0.000756
v -0.000688 0.008994 -0.000609
v -0.000813 0.008994 -0.000427
v -0.000892 0.008994 -0.000220
v -0.000919 0.008994 -0.000000
v -0.000892 0.008994 0.000220
v -0.000813 0.008994 0.000427
v -0.000688 0.008994 0.000609
v -0.000522 0.008994 0.000756
v -0.000326 0.008994 0.000859
v -0.000111 0.008994 0.000912
v 0.000111 0.008994 0.000912
v 0.000326 0.008994 0.000859
v 0.000522 0.008994 0.000756
v 0.000688 0.008994 0.000609
v 0.000813 0.008994 0.000427
v 0.000892 0.008994 0.000220
v 0.001946 -0.019886 -0.001740
v -0.001946 -0.019886 -0.001740
v 0.001476 -0.019886 -0.002153
v 0.000921 -0.019886 -0.002443
v 0.000313 -0.019886 -0.002592
v -0.000313 -0.019886 -0.002592
v -0.000921 -0.019886 -0.002443
v -0.001476 -0.019886 -0.002153
v 0.000919 -0.019886 0.000000
v 0.000919 -0.027781 0.000000
v 0.000892 -0.027781 -0.000220
v 0.000813 -0.027781 -0.000427
v 0.000688 -0.027781 -0.000609
v 0.000522 -0.027781 -0.000756
v 0.000326 -0.027781 -0.000859
v 0.000111 -0.027781 -0.000912
v -0.000111 -0.027781 -0.000912
v -0.000326 -0.027781 -0.000859
v -0.000522 -0.027781 -0.000756
v -0.000688 -0.027781 -0.000609
v -0.000813 -0.027781 -0.000427
v -0.000892 -0.027781 -0.000220
v -0.000919 -0.027781 -0.000000
v -0.000892 -0.027781 0.000220
v -0.000813 -0.027781 0.000427
v -0.000688 -0.027781 0.000609
v -0.000522 -0.027781 0.000756
v -0.000326 -0.027781 0.000859
v -0.000111 -0.027781 0.000912
v 0.000111 -0.027781 0.000912
v 0.000326 -0.027781 0.000859
v 0.000522 -0.027781 0.000756
v 0.000688 -0.027781 0.000609
v 0.000813 -0.027781 0.000427
v 0.000892 -0.027781 0.000220
v 0.000919 -0.027781 0.000000
v 0.000919 -0.019886 0.000000
v 0.000892 -0.019886 -0.000220
v 0.000813 -0.019886 -0.000427
v 0.000688 -0.019886 -0.000609
v 0.000522 -0.019886 -0.000756
v 0.000326 -0.019886 -0.000859
v 0.000111 -0.019886 -0.000912
v -0.000111 -0.019886 -0.000912
v -0.000326 -0.019886 -0.000859
v -0.000522 -0.019886 -0.000756
v -0.000688 -0.019886 -0.000609
v -0.000813 -0.019886 -0.000427
v -0.000892 -0.019886 -0.000220
v -0.000919 -0.019886 -0.000000
v -0.000892 -0.019886 0.000220
v -0.000813 -0.019886 0.000427
v -0.000688 -0.019886 0.000609
v -0.000522 -0.019886 0.000756
v -0.000326 -0.019886 0.000859
v -0.000111 -0.019886 0.000912
v 0.000111 -0.019886 0.000912
v 0.000326 -0.019886 0.000859
v 0.000522 -0.019886 0.000756
v 0.000688 -0.019886 0.000609
v 0.000813 -0.019886 0.000427
v 0.000892 -0.019886 0.000220
v -0.001946 -0.027781 -0.001740
v -0.001946 -0.019886 -0.001740
v 0.001946 -0.027781 -0.001740
v 0.001946 -0.019886 -0.001740
v 0.001946 -0.027781 0.001740
v 0.001946 -0.019886 0.001740
v -0.001946 -0.027781 0.001740
v -0.001946 -0.019886 0.001740
v 0.001946 -0.027781 0.001740
v 0.002308 -0.027781 0.001220
v 0.002534 -0.027781 0.000629
v 0.002611 -0.027781 -0.000000
v -0.001946 -0.027781 0.001740
v -0.001946 -0.027781 -0.001740
v -0.002308 -0.027781 -0.001220
v -0.002534 -0.027781 -0.000629
v -0.002611 -0.027781 -0.000000
v -0.002534 -0.027781 0.000629
v -0.002308 -0.027781 0.001220
v 0.001946 -0.027781 -0.001740
v 0.002534 -0.027781 -0.000629
v 0.002308 -0.027781 -0.001220
v 0.000919 -0.027781 0.000000
v 0.000892 -0.027781 -0.000220
v 0.000813 -0.027781 -0.000427
v 0.000688 -0.027781 -0.000609
v 0.000522 -0.027781 -0.000756
v 0.000326 -0.027781 -0.000859
v 0.000111 -0.027781 -0.000912
v -0.000111 -0.027781 -0.000912
v -0.000326 -0.027781 -0.000859
v -0.000522 -0.027781 -0.000756
v -0.000688 -0.027781 -0.000609
v -0.000813 -0.027781 -0.000427
v -0.000892 -0.027781 -0.000220
v -0.000919 -0.027781 -0.000000
v -0.000892 -0.027781 0.000220
v -0.000813 -0.027781 0.000427
v -0.000688 -0.027781 0.000609
v -0.000522 -0.027781 0.000756
v -0.000326 -0.027781 0.000859
v -0.000111 -0.027781 0.000912
v 0.000111 -0.027781 0.000912
v 0.000326 -0.027781 0.000859
v 0.000522 -0.027781 0.000756
v 0.000688 -0.027781 0.000609
v 0.000813 -0.027781 0.000427
v 0.000892 -0.027781 0.000220
v 0.000919 -0.019886 0.000000
v 0.000892 -0.019886 -0.000220
v 0.000813 -0.019886 -0.000427
v 0.000688 -0.019886 -0.000609
v 0.000522 -0.019886 -0.000756
v 0.000326 -0.019886 -0.000859
v 0.000111 -0.019886 -0.000912
v -0.000111 -0.019886 -0.000912
v -0.000326 -0.019886 -0.000859
v -0.000522 -0.019886 -0.000756
v -0.000688 -0.019886 -0.000609
v -0.000813 -0.019886 -0.000427
v -0.000892 -0.019886 -0.000220
v -0.000919 -0.019886 -0.000000
v -0.000892 -0.019886 0.000220
v -0.000813 -0.019886 0.000427
v -0.000688 -0.019886 0.000609
v -0.000522 -0.019886 0.000756
v -0.000326 -0.019886 0.000859
v -0.000111 -0.019886 0.000912
v 0.000111 -0.019886 0.000912
v 0.000326 -0.019886 0.000859
v 0.000522 -0.019886 0.000756
v 0.000688 -0.019886 0.000609
v 0.000813 -0.019886 0.000427
v 0.000892 -0.019886 0.000220
v -0.001946 -0.019886 0.001740
v 0.001946 -0.019886 0.001740
v -0.001476 -0.019886 0.002153
v -0.000921 -0.019886 0.002443
v -0.000313 -0.019886 0.002592
v 0.000313 -0.019886 0.002592
v 0.000921 -0.019886 0.002443
v 0.001476 -0.019886 0.002153
vn -0.0000 1.0000 -0.0000
vn 0.9706 -0.0000 -0.2409
vn 1.0000 -0.0000 -0.0000
vn 0.8840 -0.0000 -0.4675
vn 0.7454 -0.0000 -0.6667
vn 0.7454 -0.0000 -0.6666
vn 0.5653 -0.0000 -0.8249
vn 0.3527 -0.0000 -0.9357
vn 0.1199 -0.0000 -0.9928
vn -0.1199 -0.0000 -0.9928
vn -0.3527 -0.0000 -0.9357
vn -0.5653 -0.0000 -0.8249
vn -0.7454 -0.0000 -0.6667
vn -0.8840 -0.0000 -0.4675
vn -0.7454 -0.0000 -0.6666
vn -0.9706 -0.0000 -0.2409
vn -1.0000 -0.0000 -0.0000
vn -0.9706 -0.0000 0.2409
vn -0.7454 -0.0000 0.6667
vn -0.8840 -0.0000 0.4675
vn -0.7454 -0.0000 0.6666
vn -0.5653 -0.0000 0.8249
vn -0.3527 -0.0000 0.9357
vn -0.1199 -0.0000 0.9928
vn 0.1199 -0.0000 0.9928
vn 0.3527 -0.0000 0.9357
vn 0.5653 -0.0000 0.8249
vn 0.8840 -0.0000 0.4675
vn 0.7454 -0.0000 0.6667
vn 0.7454 -0.0000 0.6666
vn 0.9706 -0.0000 0.2409
vn -0.0000 -0.0000 -1.0000
vn -0.9709 -0.0000 0.2393
vn -0.8855 -0.0000 0.4647
vn -0.7485 -0.0000 0.6631
vn -0.5681 -0.0000 0.8230
vn -0.3546 -0.0000 0.9350
vn -0.1205 -0.0000 0.9927
vn 0.1205 -0.0000 0.9927
vn 0.3546 -0.0000 0.9350
vn 0.5681 -0.0000 0.8230
vn 0.7485 -0.0000 0.6631
vn 0.8855 -0.0000 0.4647
vn 0.9709 -0.0000 0.2393
vn 0.9709 -0.0000 -0.2393
vn 0.8855 -0.0000 -0.4647
vn 0.7485 -0.0000 -0.6631
vn 0.5681 -0.0000 -0.8230
vn 0.3546 -0.0000 -0.9350
vn 0.1205 -0.0000 -0.9927
vn -0.1205 -0.0000 -0.9927
vn -0.3546 -0.0000 -0.9350
vn -0.5681 -0.0000 -0.8230
vn -0.7485 -0.0000 -0.6631
vn -0.8855 -0.0000 -0.4647
vn -0.9709 -0.0000 -0.2393
vn -0.0000 -0.0000 1.0000
vn -0.0000 -1.0000 -0.0000
vn 0.0001 -1.0000 -0.0000
s 0
usemtl mat_5
f 9//1 10//1 11//1
f 9//1 11//1 12//1
f 9//1 12//1 13//1
f 9//1 13//1 14//1
f 9//1 14//1 15//1
f 9//1 15//1 16//1
f 9//1 16//1 17//1
f 9//1 17//1 18//1
f 9//1 18//1 19//1
f 9//1 19//1 20//1
f 26//1 24//1 25//1
f 1//1 24//1 26//1
f 6//1 7//1 8//1
f 6//1 8//1 9//1
f 6//1 20//1 21//1
f 6//1 9//1 20//1
f 3//1 1//1 2//1
f 4//1 5//1 6//1
f 4//1 21//1 22//1
f 4//1 22//1 23//1
f 4//1 23//1 24//1
f 4//1 24//1 1//1
f 4//1 6//1 21//1
f 4//1 1//1 3//1
f 33//1 34//1 28//1
f 29//1 30//1 31//1
f 27//1 31//1 32//1
f 27//1 32//1 33//1
f 27//1 33//1 28//1
f 27//1 29//1 31//1
f 36//1 35//1 37//1
f 36//1 37//1 38//1
f 36//1 38//1 39//1
f 36//1 39//1 40//1
f 36//1 40//1 41//1
f 36//1 41//1 42//1
s 1
f 53//2 52//3 55//3
f 53//2 55//3 56//2
f 53//2 56//2 57//4
f 59//5 57//4 58//6
f 54//4 53//2 57//4
f 54//4 57//4 59//5
f 43//5 59//5 60//7
f 43//5 54//4 59//5
f 51//6 54//4 43//5
f 44//7 43//5 60//7
f 45//8 60//7 61//8
f 45//8 44//7 60//7
f 46//9 61//8 62//9
f 46//9 45//8 61//8
f 47//10 62//9 63//10
f 47//10 46//9 62//9
f 48//11 63//10 64//11
f 48//11 47//10 63//10
f 49//12 48//11 64//11
f 49//12 64//11 65//12
f 49//12 65//12 66//13
f 68//14 66//13 67//15
f 50//13 66//13 68//14
f 50//13 49//12 66//13
f 100//14 50//13 68//14
f 100//14 68//14 69//16
f 100//14 99//15 50//13
f 101//16 100//14 69//16
f 102//17 101//16 69//16
f 102//17 69//16 70//17
f 103//18 102//17 70//17
f 103//18 70//17 71//18
f 74//19 72//20 73//21
f 104//20 71//18 72//20
f 104//20 103//18 71//18
f 91//19 72//20 74//19
f 91//19 104//20 72//20
f 98//21 104//20 91//19
f 92//22 74//19 75//22
f 92//22 75//22 76//23
f 92//22 91//19 74//19
f 93//23 76//23 77//24
f 93//23 92//22 76//23
f 94//24 93//23 77//24
f 95//25 77//24 78//25
f 95//25 78//25 79//26
f 95//25 94//24 77//24
f 96//26 95//25 79//26
f 97//27 79//26 80//27
f 97//27 96//26 79//26
f 83//28 81//29 82//30
f 90//29 80//27 81//29
f 90//29 97//27 80//27
f 88//28 83//28 84//31
f 88//28 87//30 90//29
f 88//28 81//29 83//28
f 88//28 90//29 81//29
f 89//31 88//28 84//31
f 86//3 84//31 85//3
f 86//3 89//31 84//31
s 0
f 106//32 107//32 105//32
f 106//32 108//32 107//32
s 1
f 112//33 137//17 111//17
f 112//33 138//33 137//17
f 113//34 139//34 138//33
f 113//34 138//33 112//33
f 114//35 140//35 139//34
f 114//35 139//34 113//34
f 115//36 141//36 140//35
f 115//36 140//35 114//35
f 116//37 142//37 141//36
f 116//37 141//36 115//36
f 117//38 143//38 142//37
f 117//38 142//37 116//37
f 118//39 144//39 143//38
f 118//39 143//38 117//38
f 119//40 145//40 144//39
f 119//40 144//39 118//39
f 120//41 146//41 145//40
f 120//41 145//40 119//40
f 121//42 147//42 146//41
f 121//42 148//43 147//42
f 121//42 146//41 120//41
f 122//43 148//43 121//42
f 123//44 148//43 122//43
f 123//44 149//44 148//43
f 124//3 149//44 123//44
f 124//3 150//3 149//44
f 124//3 151//45 150//3
f 125//45 151//45 124//3
f 126//46 151//45 125//45
f 126//46 152//46 151//45
f 126//46 153//47 152//46
f 127//47 153//47 126//46
f 128//48 153//47 127//47
f 128//48 154//48 153//47
f 129//49 154//48 128//48
f 129//49 155//49 154//48
f 130//50 155//49 129//49
f 130//50 156//50 155//49
f 131//51 156//50 130//50
f 131//51 157//51 156//50
f 132//52 157//51 131//51
f 132//52 158//52 157//51
f 132//52 159//53 158//52
f 133//53 159//53 132//52
f 134//54 159//53 133//53
f 134//54 160//54 159//53
f 135//55 161//55 160//54
f 135//55 160//54 134//54
f 135//55 162//56 161//55
f 136//56 162//56 135//55
f 110//17 109//17 162//56
f 110//17 162//56 136//56
s 0
f 165//57 163//57 164//57
f 165//57 164//57 166//57
f 197//1 179//1 180//1
f 198//1 197//1 180//1
f 196//1 178//1 179//1
f 196//1 179//1 197//1
f 199//1 198//1 180//1
f 195//1 177//1 178//1
f 195//1 178//1 196//1
f 200//1 199//1 180//1
f 194//1 177//1 195//1
f 201//1 200//1 180//1
f 193//1 176//1 177//1
f 193//1 177//1 194//1
f 192//1 175//1 176//1
f 192//1 176//1 193//1
f 191//1 174//1 175//1
f 191//1 175//1 192//1
f 167//1 202//1 201//1
f 167//1 203//1 202//1
f 167//1 204//1 203//1
f 167//1 201//1 180//1
f 190//1 174//1 191//1
f 189//1 174//1 190//1
f 188//1 174//1 189//1
f 168//1 205//1 204//1
f 168//1 204//1 167//1
f 169//1 206//1 205//1
f 169//1 205//1 168//1
f 170//1 182//1 181//1
f 170//1 181//1 206//1
f 170//1 206//1 169//1
f 171//1 183//1 182//1
f 171//1 182//1 170//1
f 172//1 183//1 171//1
f 172//1 184//1 183//1
f 173//1 184//1 172//1
f 173//1 185//1 184//1
f 173//1 186//1 185//1
f 173//1 187//1 186//1
f 173//1 188//1 187//1
f 173//1 174//1 188//1
f 207//58 208//58 209//58
f 209//58 208//58 210//58
f 210//58 208//58 211//58
f 211//58 208//58 212//58
f 212//58 208//58 213//58
f 213//58 208//58 214//58
s 1
f 241//56 243//17 242//17
f 241//56 268//56 243//17
f 240//55 267//55 268//56
f 240//55 268//56 241//56
f 239//54 265//53 266//54
f 239//54 266//54 267//55
f 239//54 267//55 240//55
f 238//53 265//53 239//54
f 237//52 264//52 265//53
f 237//52 265//53 238//53
f 236//51 263//51 264//52
f 236//51 264//52 237//52
f 235//50 262//50 263//51
f 235//50 263//51 236//51
f 234//49 261//49 262//50
f 234//49 262//50 235//50
f 233//48 260//48 261//49
f 233//48 261//49 234//49
f 232//47 259//47 260//48
f 232//47 260//48 233//48
f 231//46 259//47 232//47
f 231//46 258//46 259//47
f 230//45 258//46 231//46
f 230//45 257//45 258//46
f 229//3 257//45 230//45
f 229//3 256//3 257//45
f 228//44 256//3 229//3
f 228//44 254//43 255//44
f 228//44 255//44 256//3
f 227//43 254//43 228//44
f 227//43 253//42 254//43
f 226//42 253//42 227//43
f 225//41 253//42 226//42
f 225//41 251//40 252//41
f 225//41 252//41 253//42
f 224//40 251//40 225//41
f 223//39 251//40 224//40
f 223//39 250//39 251//40
f 222//38 249//38 250//39
f 222//38 250//39 223//39
f 221//37 248//37 249//38
f 221//37 249//38 222//38
f 220//36 247//36 248//37
f 220//36 248//37 221//37
f 219//35 246//35 247//36
f 219//35 247//36 220//36
f 218//34 245//34 246//35
f 218//34 246//35 219//35
f 217//33 244//33 245//34
f 217//33 245//34 218//34
f 216//17 215//17 244//33
f 216//17 244//33 217//33
s 0
f 270//32 271//32 269//32
f 270//32 272//32 271//32
f 275//57 273//57 274//57
f 275//57 274//57 276//57
f 301//58 283//58 282//58
f 300//58 301//58 282//58
f 302//58 284//58 283//58
f 302//58 283//58 301//58
f 299//58 300//58 282//58
f 303//58 285//58 284//58
f 303//58 284//58 302//58
f 298//58 299//58 282//58
f 304//58 285//58 303//58
f 305//58 286//58 285//58
f 305//58 285//58 304//58
f 306//58 287//58 286//58
f 306//58 286//58 305//58
f 307//58 281//58 287//58
f 307//58 287//58 306//58
f 288//58 294//58 295//58
f 288//58 295//58 296//58
f 288//58 296//58 297//58
f 288//58 297//58 298//58
f 288//58 298//58 282//58
f 308//58 281//58 307//58
f 309//58 281//58 308//58
f 310//58 281//58 309//58
f 311//58 281//58 310//58
f 290//58 293//58 294//58
f 290//58 294//58 288//58
f 289//58 292//58 293//58
f 289//58 293//58 290//58
f 280//58 291//58 292//58
f 280//58 316//58 291//58
f 280//58 292//58 289//58
f 279//58 316//58 280//58
f 279//58 315//58 316//58
f 278//58 315//58 279//58
f 278//58 314//58 315//58
f 277//58 281//58 311//58
f 277//58 314//58 278//58
f 277//58 311//58 312//58
f 277//58 312//58 313//58
f 277//58 313//58 314//58
f 325//58 327//58 326//58
f 325//58 328//58 327//58
f 322//58 324//58 323//58
f 322//58 325//58 324//58
f 320//58 322//58 321//58
f 335//58 329//58 328//58
f 335//58 330//58 329//58
f 335//58 331//58 330//58
f 335//58 332//58 331//58
f 335//58 333//58 332//58
f 335//58 334//58 333//58
f 335//58 328//58 325//58
f 317//58 319//58 318//58
f 339//58 336//58 335//58
f 339//58 337//58 336//58
f 339//58 338//58 337//58
f 339//58 335//58 325//58
f 340//58 320//58 319//58
f 340//59 342//59 341//59
f 340//58 317//58 342//58
f 340//58 325//58 322//58
f 340//58 339//58 325//58
f 340//58 322//58 320//58
f 340//58 319//58 317//58
f 346//58 345//58 343//58
f 344//58 347//58 346//58
f 344//58 348//58 347//58
f 344//58 349//58 348//58
f 344//58 350//58 349//58
f 344//58 346//58 343//58
